<svg xmlns="http://www.w3.org/2000/svg" width="512" height="304" class="svgbob"><style>.svgbob line, .svgbob path, .svgbob circle, .svgbob rect, .svgbob polygon {
    stroke: black;
    stroke-width: 2;
    stroke-opacity: 1;
    fill-opacity: 1;
    stroke-linecap: round;
    stroke-linejoin: miter;
}
.svgbob text {
    white-space: pre;
    fill: black;
    font-family: Iosevka Fixed, monospace;
    font-size: 14px;
}
.svgbob rect.backdrop {
    stroke: none;
    fill: white;
}
.svgbob .broken {
    stroke-dasharray: 8;
}
.svgbob .filled {
    fill: black;
}
.svgbob .bg_filled {
    fill: white;
    stroke-width: 1;
}
.svgbob .nofill {
    fill: white;
}
.svgbob .end_marked_arrow {
    marker-end: url(#arrow);
}
.svgbob .start_marked_arrow {
    marker-start: url(#arrow);
}
.svgbob .end_marked_diamond {
    marker-end: url(#diamond);
}
.svgbob .start_marked_diamond {
    marker-start: url(#diamond);
}
.svgbob .end_marked_circle {
    marker-end: url(#circle);
}
.svgbob .start_marked_circle {
    marker-start: url(#circle);
}
.svgbob .end_marked_open_circle {
    marker-end: url(#open_circle);
}
.svgbob .start_marked_open_circle {
    marker-start: url(#open_circle);
}
.svgbob .end_marked_big_open_circle {
    marker-end: url(#big_open_circle);
}
.svgbob .start_marked_big_open_circle {
    marker-start: url(#big_open_circle);
}<!--separator--></style><defs><marker id="arrow" viewBox="-2 -2 8 8" refX="4" refY="2" markerWidth="7" markerHeight="7" orient="auto-start-reverse"><polygon points="0,0 0,4 4,2 0,0"></polygon></marker><marker id="diamond" viewBox="-2 -2 8 8" refX="4" refY="2" markerWidth="7" markerHeight="7" orient="auto-start-reverse"><polygon points="0,2 2,0 4,2 2,4 0,2"></polygon></marker><marker id="circle" viewBox="0 0 8 8" refX="4" refY="4" markerWidth="7" markerHeight="7" orient="auto-start-reverse"><circle cx="4" cy="4" r="2" class="filled"></circle></marker><marker id="open_circle" viewBox="0 0 8 8" refX="4" refY="4" markerWidth="7" markerHeight="7" orient="auto-start-reverse"><circle cx="4" cy="4" r="2" class="bg_filled"></circle></marker><marker id="big_open_circle" viewBox="0 0 8 8" refX="4" refY="4" markerWidth="7" markerHeight="7" orient="auto-start-reverse"><circle cx="4" cy="4" r="3" class="bg_filled"></circle></marker></defs><rect class="backdrop" x="0" y="0" width="512" height="304"></rect><rect x="140" y="24" width="128" height="80" class="solid nofill" rx="0"></rect><text x="170" y="60" >calling</text><text x="170" y="76" >who</text><line x1="192" y1="80" x2="200" y2="80" class="solid"></line><text x="202" y="76" >am</text><line x1="216" y1="80" x2="224" y2="80" class="solid"></line><text x="226" y="76" >I</text><rect x="140" y="184" width="128" height="80" class="solid nofill" rx="0"></rect><rect x="340" y="184" width="128" height="80" class="solid nofill" rx="0"></rect><text x="370" y="220" >calling</text><text x="370" y="236" >who</text><line x1="392" y1="240" x2="400" y2="240" class="solid"></line><text x="402" y="236" >am</text><line x1="416" y1="240" x2="424" y2="240" class="solid"></line><text x="426" y="236" >I</text><text x="162" y="12" >con</text><line x1="184" y1="16" x2="192" y2="16" class="solid"></line><text x="194" y="12" >direct</text><text x="122" y="124" >ctx.caller</text><line x1="208" y1="118" x2="216" y2="118" class="solid"></line><line x1="208" y1="122" x2="216" y2="122" class="solid"></line><text x="226" y="124" >2fadab39</text><text x="18" y="44" >ctx.signer</text><text x="18" y="76" >2fadab39</text><line x1="88" y1="72" x2="120" y2="72" class="solid"></line><polygon points="120,68 128,72 120,76" class="filled"></polygon><text x="154" y="172" >con</text><line x1="176" y1="176" x2="184" y2="176" class="solid"></line><text x="186" y="172" >indirect</text><text x="362" y="172" >con</text><line x1="384" y1="176" x2="392" y2="176" class="solid"></line><text x="394" y="172" >direct</text><text x="306" y="284" >ctx.caller</text><line x1="392" y1="278" x2="400" y2="278" class="solid"></line><line x1="392" y1="282" x2="400" y2="282" class="solid"></line><text x="410" y="284" >con</text><line x1="432" y1="288" x2="440" y2="288" class="solid"></line><text x="442" y="284" >indirect</text><text x="10" y="204" >ctx.signer</text><text x="10" y="236" >2fadab39</text><line x1="80" y1="232" x2="120" y2="232" class="solid"></line><polygon points="120,228 128,232 120,236" class="filled"></polygon><line x1="280" y1="232" x2="320" y2="232" class="solid"></line><polygon points="320,228 328,232 320,236" class="filled"></polygon><g><path d="M 240,64 A 16,16 0,0,0 240,80" class="nofill"></path><path d="M 240,64 A 16,16 0,0,1 240,80" class="nofill"></path></g><g><path d="M 440,224 A 16,16 0,0,0 440,240" class="nofill"></path><path d="M 440,224 A 16,16 0,0,1 440,240" class="nofill"></path></g></svg>